<svg xmlns="http://www.w3.org/2000/svg" width="1196" height="499" viewBox="0 0 1196 499" version="1.1"><path d="M 340.500 16.719 C 310.291 24.079, 264.046 49.092, 224.773 79.312 C 151.952 135.349, 93.124 204.535, 47.612 287.666 C 21.159 335.985, 9.209 382.438, 15.499 412.500 C 19.940 433.722, 36.075 451.712, 53.641 455.027 C 82.633 460.497, 118.572 441.435, 177.841 389.151 C 185.728 382.193, 193.153 376.134, 194.341 375.688 C 198.179 374.244, 203.033 375.952, 207.864 380.447 C 216.509 388.490, 225.995 391.708, 238.074 390.696 C 259.255 388.923, 279.249 377.766, 300.605 355.803 C 311.535 344.564, 317.977 336.270, 329.471 318.641 C 337.774 305.907, 339.798 303.997, 344.973 304.007 C 349.052 304.014, 351.254 305.432, 359.500 313.363 C 380.771 333.820, 415.771 333.755, 456 313.185 C 525.966 277.410, 531.594 274.836, 562.479 264.487 C 604.678 250.348, 652.057 241, 681.524 241 L 693.971 241 697.125 234.750 C 711.905 205.455, 740.825 161.654, 755.497 146.342 C 759.208 142.469, 760.147 142, 764.194 142 C 769.844 142, 773.521 144.669, 775.091 149.910 C 776.520 154.680, 775.457 157.075, 766.396 169.500 C 757.104 182.241, 748.990 194.768, 746.751 199.830 C 743.257 207.729, 744.545 217.650, 749.648 222.132 C 756.370 228.036, 764.150 228.870, 787 226.137 C 823.859 221.727, 869.070 220.052, 875.701 222.851 C 882.550 225.742, 884.265 234.433, 879.123 240.188 L 876.246 243.408 859.373 244.166 C 817.258 246.056, 793.997 248.690, 773.170 253.930 C 736.442 263.170, 702.025 280.533, 682.018 299.915 C 674.304 307.387, 673 309.874, 673 317.105 C 673 326.609, 678.050 332.720, 691.282 339.227 C 712.446 349.634, 744.353 355.999, 768 354.531 C 817.241 351.475, 851.901 337.329, 884.729 306.889 C 889.930 302.066, 894.103 299.029, 896.070 298.636 C 898.544 298.141, 903.778 299.860, 921.571 307.007 C 933.885 311.953, 944.532 315.978, 945.230 315.951 C 946.757 315.891, 992.500 258.651, 992.500 256.800 C 992.500 255.386, 986.950 254.384, 960.500 251.026 C 941.035 248.555, 937.673 247.671, 935.045 244.331 C 931.199 239.440, 933.426 230.059, 939.196 226.845 C 940.873 225.911, 950.760 225.382, 975.500 224.902 C 1035.086 223.745, 1068.664 218.198, 1094.500 205.244 C 1117.204 193.860, 1124.209 185.488, 1124.403 169.500 C 1124.522 159.666, 1121.862 153.361, 1115.713 148.907 C 1109.777 144.607, 1105.090 143.687, 1093.234 144.495 C 1084.313 145.103, 1082.587 144.961, 1080.224 143.423 C 1076.089 140.732, 1075.067 138.906, 1075.032 134.150 C 1075.005 130.547, 1075.558 129.246, 1078.250 126.578 C 1081.262 123.592, 1082.488 123.196, 1095 121.160 C 1111.043 118.549, 1119.646 118.363, 1122.780 120.558 C 1124.004 121.415, 1126.817 124.786, 1129.033 128.048 C 1134.193 135.648, 1137.208 137.204, 1146.574 137.108 C 1157.662 136.994, 1166.974 132.781, 1177.126 123.286 C 1182.931 117.856, 1185.542 111.792, 1184.604 105.923 C 1183.126 96.680, 1177.451 90.410, 1168.500 88.130 C 1162.891 86.701, 1143.215 85.004, 1132.500 85.024 C 1087.541 85.111, 1037.179 101.243, 1020.297 120.966 C 1018.451 123.122, 1015.782 127.419, 1014.365 130.514 C 1012.177 135.293, 1011.844 137.239, 1012.156 143.414 C 1012.463 149.505, 1012.976 151.280, 1015.313 154.344 C 1020.084 160.598, 1022.621 161.373, 1039.781 161.819 L 1055.061 162.215 1058.031 165.184 C 1063.647 170.801, 1061.285 180.518, 1053.734 182.857 C 1045.596 185.377, 1002.016 187.870, 984.330 186.827 C 971.753 186.085, 969.117 185.060, 966.432 179.869 C 964.250 175.648, 964.877 173.096, 972.303 156 C 985.497 125.621, 1001.042 103.163, 1013.864 95.956 C 1017.417 93.960, 1018.545 92.220, 1024.789 79.115 L 1031.752 64.500 1028.126 63.678 C 1023.482 62.624, 1010.364 63.703, 1003.681 65.687 C 996.388 67.853, 986.310 73.107, 980.233 77.910 C 975.136 81.939, 974.937 82, 966.908 82 C 956.484 82, 940.262 84.409, 929.303 87.585 C 892.782 98.168, 855.902 133.113, 841.979 170.326 C 839.227 177.682, 836.918 179.130, 824.218 181.460 C 815.111 183.131, 814.179 183.144, 811.263 181.636 C 806.922 179.391, 805 176.274, 805 171.481 C 805 165.718, 810.583 157.647, 828.092 138.097 C 844.994 119.226, 847.517 115.118, 847.325 106.786 C 847.083 96.249, 841.726 91.455, 828.333 89.791 C 820.265 88.789, 818.764 88.891, 811 90.965 C 798.202 94.384, 794.857 94.801, 791.871 93.351 C 790.425 92.649, 788.977 91.382, 788.653 90.537 C 787.893 88.557, 778.539 88.523, 764.154 90.448 C 752.245 92.041, 754.563 90.507, 734.656 109.967 C 706.761 137.235, 686.945 162.414, 667.964 194.711 C 666.484 197.229, 664.858 198.276, 660.429 199.564 C 657.322 200.467, 652.610 201.272, 649.958 201.353 C 645.915 201.476, 644.657 201.042, 642.176 198.667 C 637.716 194.397, 637.432 190.812, 640.955 183.282 C 646.493 171.447, 661.782 150.755, 682.786 126.666 C 689.374 119.112, 691.916 115.516, 691.185 114.785 C 689.738 113.338, 659.284 114.452, 651.324 116.242 C 643.767 117.941, 638.253 122.379, 623.737 138.444 C 605.510 158.616, 588.395 182.549, 577.927 202.500 C 575.041 208, 571.966 213.334, 571.092 214.352 C 568.466 217.417, 557.195 222, 552.285 222 C 546.032 222, 542 217.991, 542 211.774 C 542 201.491, 557.851 176.089, 585.851 141.500 C 608.505 113.516, 618.179 102.649, 640.284 80.355 C 662.833 57.615, 663.182 57.199, 660.281 56.562 C 656.395 55.708, 630.873 57.551, 619.489 59.507 C 602.587 62.411, 601.192 63.068, 589.315 73.696 C 539.042 118.683, 493.621 176.380, 469.414 226 C 464.182 236.725, 459.136 247.064, 458.201 248.975 C 457.228 250.961, 454.787 253.424, 452.500 254.727 C 441.992 260.709, 421.440 264.678, 416 261.775 C 411.748 259.506, 410.505 255.521, 411.761 248.185 C 414.180 234.063, 434.941 197.272, 457.131 167.784 C 471.980 148.051, 521.217 87.743, 525.865 83.595 C 529.153 80.661, 528.482 79.998, 522.250 80.020 C 508.381 80.067, 477.871 85.897, 467.500 90.482 C 458.898 94.285, 421.303 135.343, 397.892 166.500 C 381.528 188.278, 364.107 214.549, 360.258 223.252 C 358.454 227.331, 353.298 230.202, 348.770 229.650 C 346.038 229.317, 343.497 227.800, 339.270 223.979 C 336.097 221.109, 330.575 217.367, 327 215.662 C 321.451 213.016, 319.093 212.505, 310.887 212.171 C 299.545 211.708, 293.311 213.200, 282 219.083 C 265.508 227.660, 248.441 242.950, 234.158 261.941 C 222.497 277.447, 214.890 290.405, 206.023 309.873 C 198.570 326.234, 198.559 326.251, 190.324 333.747 C 166.334 355.585, 147.405 366.138, 132.052 366.235 C 118.416 366.320, 109.643 357.897, 106.850 342.037 C 104.404 328.152, 112.031 304.125, 131.072 265.727 C 146.403 234.812, 171.909 197.185, 204.413 157.536 C 229.738 126.643, 244.471 111.707, 268.500 92.568 C 293.924 72.318, 297.722 70.093, 303.570 72.023 C 310.341 74.258, 312.911 81.403, 309.392 88.208 C 307.073 92.693, 299.372 103.683, 294.437 109.548 C 288.729 116.334, 283.630 119.688, 273.792 123.131 C 269.257 124.719, 263.961 127.297, 262.023 128.861 C 256.745 133.121, 252.273 141.506, 249.371 152.589 C 245.978 165.545, 245.396 188.640, 248.275 196.099 C 250.806 202.656, 254.014 205.410, 258.194 204.614 C 268.538 202.643, 294.193 174.480, 317.509 139.500 C 340.847 104.487, 361.062 63.380, 365.689 41.524 C 368.179 29.762, 365.689 20.002, 359.478 17.172 C 356.979 16.033, 344.533 15.737, 340.500 16.719 M 709.939 44.008 C 704.277 44.967, 694.285 49.933, 689.415 54.209 C 682.785 60.030, 680.042 71.378, 683.351 79.298 C 685.208 83.742, 691.118 88.683, 696.237 90.073 C 708.893 93.509, 729.697 86.151, 737.943 75.322 C 740.751 71.636, 741.466 69.710, 741.814 64.898 C 742.337 57.666, 740.977 54.116, 735.943 49.567 C 729.736 43.960, 721.111 42.116, 709.939 44.008 M 923.764 121.070 C 919.183 122.325, 914.423 125.776, 908.610 132.055 C 901.218 140.039, 897.591 145.463, 892.785 155.718 C 889.462 162.810, 888.856 165.031, 889.263 168.640 C 889.908 174.365, 891.176 175.705, 897.766 177.620 C 904.939 179.706, 914.338 179.124, 916.965 176.433 C 918.003 175.370, 923.024 166.668, 928.123 157.096 C 936.052 142.212, 937.454 138.866, 937.807 133.985 C 938.181 128.817, 937.950 127.980, 935.360 125.120 C 932.086 121.505, 927.728 119.983, 923.764 121.070 M 284.048 266.557 C 270.483 272.872, 247.493 304.721, 245.396 320.104 C 244.290 328.215, 249.615 335, 257.085 335 C 266.527 335, 287.291 314.054, 297.229 294.504 C 303.380 282.405, 305.231 274.276, 302.883 269.684 C 299.736 263.531, 292.964 262.407, 284.048 266.557 M 781 288.137 C 761.367 291.779, 738.438 301.319, 735.456 307.085 C 732.409 312.977, 734.766 320.169, 740.534 322.579 C 746.110 324.908, 766.689 323.879, 784.500 320.379 C 794.910 318.334, 812.985 312.518, 820.178 308.900 C 827.043 305.447, 829 302.886, 829 297.354 C 829 291.600, 824.998 287.546, 818.429 286.645 C 809.655 285.443, 791.653 286.160, 781 288.137 M 443.827 400.455 C 423.165 403.424, 411.828 407.991, 402.956 416.920 C 394.698 425.231, 392.492 430.432, 392.533 441.500 C 392.575 452.866, 395.398 459.633, 403.326 467.373 C 409.688 473.584, 417.020 477.279, 430 480.816 C 438.825 483.220, 440.957 483.400, 460 483.344 C 476.092 483.298, 483.057 482.837, 492.390 481.202 C 498.930 480.057, 504.730 478.670, 505.280 478.120 C 505.856 477.544, 506.326 470.109, 506.390 460.560 L 506.500 444.001 498.357 444 C 491.854 444, 490.092 444.319, 489.607 445.582 C 489.273 446.452, 489 453.171, 489 460.514 C 489 475.687, 490.035 474.143, 478.559 476.093 C 469.740 477.591, 448.619 476.683, 440.500 474.457 C 426.896 470.726, 419.347 464.957, 414.390 454.500 C 411.503 448.411, 411.125 436.923, 413.575 429.734 C 418.444 415.445, 437.326 405.885, 461 405.724 C 473.542 405.638, 481.213 407.392, 492.470 412.921 C 498.144 415.708, 500.918 416.579, 502.100 415.947 C 504.191 414.827, 507.400 407, 506.242 405.842 C 505.769 405.369, 500.908 403.828, 495.441 402.419 C 482.917 399.190, 458.975 398.279, 443.827 400.455 M 843.246 400.717 C 840.649 402.969, 789 480.164, 789 481.794 C 789 482.618, 791.139 482.995, 795.750 482.985 L 802.500 482.969 807.906 472.735 C 810.880 467.106, 814.812 460.137, 816.644 457.250 L 819.975 452 836.848 452 C 846.128 452, 855.763 452.280, 858.259 452.622 C 862.783 453.242, 862.815 453.274, 868.809 463.372 C 872.116 468.942, 875.851 475.637, 877.110 478.250 L 879.399 483 889.199 483 C 896.383 483, 898.995 482.666, 898.981 481.750 C 898.971 481.063, 889.563 465.650, 878.074 447.500 C 850.324 403.660, 847.689 399.647, 846.401 399.263 C 845.797 399.082, 844.377 399.737, 843.246 400.717 M 1042.510 401.175 C 1035.370 402.537, 1025.707 407.430, 1022.143 411.490 C 1018.632 415.489, 1016.593 421.872, 1017.504 426.016 C 1018.328 429.772, 1025.143 437.421, 1030.349 440.435 C 1032.632 441.757, 1037.763 443.775, 1041.750 444.919 C 1045.737 446.064, 1052.204 447.929, 1056.120 449.065 C 1068.962 452.790, 1073.968 457.910, 1071.942 465.249 C 1070.763 469.518, 1065.626 474.388, 1060.500 476.095 C 1058.300 476.828, 1052.675 477.434, 1048 477.442 C 1038.416 477.459, 1031.446 474.965, 1024.822 469.149 C 1020.385 465.253, 1018.232 465.137, 1017.422 468.750 C 1017.083 470.262, 1016.412 473.050, 1015.930 474.944 C 1015.448 476.838, 1015.204 478.537, 1015.387 478.720 C 1016.439 479.772, 1027.958 483.171, 1033.962 484.200 C 1042.810 485.718, 1060.959 484.110, 1069.008 481.097 C 1080.234 476.894, 1088 467.553, 1088 458.255 C 1088 451.621, 1086.239 448.085, 1081.315 444.829 C 1074.502 440.324, 1071.256 439.029, 1057.789 435.444 C 1044.283 431.848, 1036.845 428.448, 1035.018 425.034 C 1033.112 421.473, 1033.807 415.500, 1036.462 412.636 C 1039.422 409.442, 1041.925 408.420, 1050.410 406.942 C 1059.392 405.378, 1066.314 407.391, 1071.431 413.055 C 1075.767 417.855, 1077.866 417.841, 1080.155 413 C 1083.623 405.666, 1083.569 405.451, 1077.772 403.648 C 1065.973 399.978, 1053.408 399.097, 1042.510 401.175 M 535.001 401.711 C 535.002 402.145, 534.788 413.300, 534.527 426.500 C 534.247 440.629, 534.475 453.173, 535.082 457 C 538.099 476.046, 553.015 484.099, 585.500 484.221 C 598.408 484.269, 606.564 482.740, 615.500 478.598 C 621.416 475.855, 629.443 468.977, 631.604 464.799 C 634.254 459.675, 635.911 449.042, 636.482 433.500 C 636.785 425.250, 637.267 414.563, 637.552 409.750 L 638.072 401 631.608 401 L 625.145 401 624.744 427.750 C 624.282 458.586, 623.974 460.075, 616.527 467.534 C 610.885 473.183, 607.583 474.481, 594.566 476.161 C 574.394 478.765, 556.425 471.438, 552.853 459.154 C 551.464 454.378, 551.037 431.686, 551.955 411.500 L 552.410 401.500 543.705 401.211 C 538.917 401.052, 535 401.277, 535.001 401.711 M 669.433 429.711 C 669.855 447.346, 669.729 462.129, 669.109 467.868 C 668.553 473.020, 668.356 478.532, 668.674 480.118 L 669.250 483 678.074 483 L 686.898 483 686.699 448.250 C 686.590 429.137, 686.701 410.800, 686.946 407.500 L 687.392 401.500 678.068 401.211 L 668.744 400.922 669.433 429.711 M 705 405.898 L 705 410.295 720.876 409.598 C 729.608 409.214, 737.999 409.213, 739.523 409.595 L 742.294 410.290 741.762 446.645 L 741.230 483 750.710 483 L 760.189 483 759.467 463.641 C 759.070 452.993, 759.077 436.308, 759.483 426.562 L 760.222 408.842 778.111 409.559 L 796 410.276 796 405.888 L 796 401.500 750.500 401.500 L 705 401.500 705 405.898 M 917.500 442.250 L 917.500 483 926.366 483 L 935.231 483 934.500 464 L 933.769 445 936.460 445 C 940.239 445, 954.174 455.793, 974.226 474.250 L 983.732 483 994.366 483 C 1000.215 483, 1005 482.654, 1005 482.231 C 1005 481.808, 995.170 473.145, 983.155 462.981 C 964.725 447.389, 961.638 444.398, 963.405 443.849 C 964.557 443.490, 969.365 442.036, 974.089 440.616 C 1000.709 432.618, 1001.553 410.054, 975.500 402.891 C 971.845 401.886, 963.369 401.514, 944 401.508 L 917.500 401.500 917.500 442.250 M 935.656 414.020 C 935.295 417.470, 935 424.277, 935 429.147 L 935 438 943.951 438 C 958.863 438, 968.180 435.140, 973.374 428.967 C 976.618 425.112, 976.904 419.419, 974.037 415.774 C 970.262 410.974, 962.826 408.739, 948.906 408.218 L 936.311 407.746 935.656 414.020 M 832.860 431.927 L 825.221 443.721 833.360 444.354 C 844.255 445.202, 857 445.169, 857 444.291 C 857 443.304, 841.615 420.027, 841 420.086 C 840.725 420.112, 837.062 425.440, 832.860 431.927" stroke="none" fill="#000000" fill-rule="evenodd"/></svg>